<svg xmlns="http://www.w3.org/2000/svg" viewBox="0 0 831.54 330.7"><defs><style>.cls-1{fill:#060e42;}.cls-2{fill:#c0c71f;}.cls-3{fill:#62943b;}</style></defs><title>Vesti logo</title><g id="Layer_2" data-name="Layer 2"><g id="Layer_1-2" data-name="Layer 1"><path class="cls-1" d="M439.83,249.88H306.33q3.51,18.63,15.63,29.69a40.62,40.62,0,0,0,28.28,11.07q29.86,0,43.57-23.19l41.45,8.78q-11.24,26.7-33.37,40.4t-51.65,13.7q-37.94,0-63.94-26t-26-66.75q0-40.76,26.17-66.93T351,144.49q35.82,0,61.65,25.12t27.23,64.47ZM324.07,193.32q-12.46,8.43-16.34,23.89H392.4q-4.22-16.15-15.46-24.24a43.35,43.35,0,0,0-26-8.08A47.07,47.07,0,0,0,324.07,193.32Z"/><path class="cls-1" d="M498.15,269.21q3.17,23.88,36.18,23.89,12.64,0,20-4.92t7.37-12.65q0-11.59-19.32-15.81l-35.83-7.38q-23.9-4.92-36.71-17.91t-12.83-32q0-25.65,19.5-41.81t52.17-16.16q30.57,0,51.12,14.4T605,196.48l-44.27,8.79a25.16,25.16,0,0,0-10.36-17.57q-9-6.67-23-6.67-12.64,0-18.27,5.09a15.83,15.83,0,0,0-5.62,12.12q0,11.25,15.81,14.76l41.8,9.13q22.49,4.92,34.25,18.09a45.61,45.61,0,0,1,11.77,31.45q0,28.45-20.9,43.56t-56,15.1q-31.28,0-53.4-12.82t-25.3-38.82Z"/><path class="cls-1" d="M761.63,317.34q-24.24,13-45.67,13-32.33,0-50.59-17.39T647.1,260.42V187.7H609.51V149.76H647.1v-53h46.38v53.05h57.26V187.7H693.48v69.21q0,30.21,25.64,30.21,13.35,0,29.16-8.43Z"/><path class="cls-1" d="M823.46,83.19a26.92,26.92,0,0,1,8.08,19.49A25.65,25.65,0,0,1,823.46,122a27.85,27.85,0,0,1-20,7.72q-12.3,0-20.2-7.72a26,26,0,0,1-7.91-19.33,28.19,28.19,0,0,1,48.13-19.49ZM780.25,330.33V155h46.37v175.3Z"/><polygon class="cls-2" points="0 94.97 80.56 94.97 40.28 188.76 0 94.97"/><polygon class="cls-3" points="101.58 94.97 200.94 52.55 91.19 308.1 50.62 213.63 101.58 94.97"/><polygon class="cls-2" points="225.04 42.41 324.4 0 182.38 330.7 101.24 330.7 225.04 42.41"/></g></g></svg>